# Exported from Wings 3D 2.1.5
mtllib room.mtl
o Cube2_copy4
#8 vertices, 12 faces
v 2.66954771 -3.2053825e-2 -0.20600000
v 2.66954771 -3.2053825e-2 0.20600000
v 2.66954771 2.00525575 -0.20600000
v 2.66954771 2.00525575 0.20600000
v 3.08154771 -3.2053825e-2 -0.20600000
v 3.08154771 -3.2053825e-2 0.20600000
v 3.08154771 2.00525575 -0.20600000
v 3.08154771 2.00525575 0.20600000
vn -0.57735027 -0.57735027 -0.57735027
vn -0.57735027 -0.57735027 0.57735027
vn -0.57735027 0.57735027 -0.57735027
vn -0.57735027 0.57735027 0.57735027
vn 0.57735027 -0.57735027 -0.57735027
vn 0.57735027 -0.57735027 0.57735027
vn 0.57735027 0.57735027 -0.57735027
vn 0.57735027 0.57735027 0.57735027
g Cube2_copy4_White
usemtl White
s 1
f 1//1 5//5 2//2
f 2//2 3//3 1//1
f 2//2 5//5 6//6
f 2//2 8//8 4//4
f 3//3 5//5 1//1
f 3//3 8//8 7//7
f 4//4 3//3 2//2
f 4//4 8//8 3//3
f 5//5 8//8 6//6
f 6//6 8//8 2//2
f 7//7 5//5 3//3
f 7//7 8//8 5//5
o Cube2_copy3
#8 vertices, 12 faces
v 1.04423814 -3.2053825e-2 -0.20600000
v 1.04423814 -3.2053825e-2 0.20600000
v 1.04423814 2.00525575 -0.20600000
v 1.04423814 2.00525575 0.20600000
v 1.45623814 -3.2053825e-2 -0.20600000
v 1.45623814 -3.2053825e-2 0.20600000
v 1.45623814 2.00525575 -0.20600000
v 1.45623814 2.00525575 0.20600000
vn -0.57735027 -0.57735027 -0.57735027
vn -0.57735027 -0.57735027 0.57735027
vn -0.57735027 0.57735027 -0.57735027
vn -0.57735027 0.57735027 0.57735027
vn 0.57735027 -0.57735027 -0.57735027
vn 0.57735027 -0.57735027 0.57735027
vn 0.57735027 0.57735027 -0.57735027
vn 0.57735027 0.57735027 0.57735027
g Cube2_copy3_White
usemtl White
s 1
f 9//9 13//13 10//10
f 10//10 11//11 9//9
f 10//10 13//13 14//14
f 10//10 16//16 12//12
f 11//11 13//13 9//9
f 11//11 16//16 15//15
f 12//12 11//11 10//10
f 12//12 16//16 11//11
f 13//13 16//16 14//14
f 14//14 16//16 10//10
f 15//15 13//13 11//11
f 15//15 16//16 13//13
o Cube2
#8 vertices, 12 faces
v -0.99419361 -3.2053825e-2 -0.20600000
v -0.99419361 -3.2053825e-2 0.20600000
v -0.99419361 2.00525575 -0.20600000
v -0.99419361 2.00525575 0.20600000
v -0.58219361 -3.2053825e-2 -0.20600000
v -0.58219361 -3.2053825e-2 0.20600000
v -0.58219361 2.00525575 -0.20600000
v -0.58219361 2.00525575 0.20600000
vn -0.57735027 -0.57735027 -0.57735027
vn -0.57735027 -0.57735027 0.57735027
vn -0.57735027 0.57735027 -0.57735027
vn -0.57735027 0.57735027 0.57735027
vn 0.57735027 -0.57735027 -0.57735027
vn 0.57735027 -0.57735027 0.57735027
vn 0.57735027 0.57735027 -0.57735027
vn 0.57735027 0.57735027 0.57735027
g Cube2_White
usemtl White
s 1
f 17//17 21//21 18//18
f 18//18 19//19 17//17
f 18//18 21//21 22//22
f 18//18 24//24 20//20
f 19//19 21//21 17//17
f 19//19 24//24 23//23
f 20//20 19//19 18//18
f 20//20 24//24 19//19
f 21//21 24//24 22//22
f 22//22 24//24 18//18
f 23//23 21//21 19//19
f 23//23 24//24 21//21
o Cube1
#32 vertices, 56 faces
v -2.61280000 7.6160000e-3 -1.00000000
v -2.61280000 7.6160000e-3 2.69881600
v -2.61280000 2.00761600 -1.00000000
v -2.61280000 2.00761600 2.69881600
v 3.73600000 7.6160000e-3 -1.00000000
v 3.73600000 7.6160000e-3 2.69881600
v 3.73600000 2.00761600 -1.00000000
v 3.73600000 2.00761600 2.69881600
v -1.18636800 2.00761600 -1.00000000
v -1.18636800 7.6160000e-3 -1.00000000
v -1.18636800 7.6160000e-3 -1.67584000
v -1.18636800 2.00761600 -1.67584000
v 3.73600000 2.00761600 -1.67584000
v 3.73600000 7.6160000e-3 -1.67584000
v 1.27481600 7.6160000e-3 -1.67584000
v 1.27481600 2.00761600 -1.67584000
v -0.44737600 0.60836800 -1.67584000
v -0.44737600 1.81236800 -1.67584000
v 0.87681600 1.81236800 -1.67584000
v 0.87681600 0.60836800 -1.67584000
v 1.67281600 1.81236800 -1.67584000
v 2.95400000 1.81236800 -1.67584000
v 2.95400000 0.60836800 -1.67584000
v 1.67281600 0.60836800 -1.67584000
v 1.67281600 1.81236800 -1.96460800
v 2.95400000 1.81236800 -1.96460800
v 2.95400000 0.60836800 -1.96460800
v 1.67281600 0.60836800 -1.96460800
v -0.44737600 0.60836800 -1.96460800
v -0.44737600 1.81236800 -1.96460800
v 0.87681600 1.81236800 -1.96460800
v 0.87681600 0.60836800 -1.96460800
vn 0.57735027 0.57735027 0.57735027
vn 0.57735027 0.57735027 -0.57735027
vn 0.66666667 -0.33333333 0.66666667
vn 0.40824829 -0.81649658 -0.40824829
vn -0.80000000 0.60000000 0.0000000e+0
vn -0.40824829 0.81649658 -0.40824829
vn -0.55470020 -0.83205029 0.0000000e+0
vn -0.57735027 -0.57735027 -0.57735027
vn 0.19245009 -0.96225045 0.19245009
vn 0.34815531 0.87038828 0.34815531
vn 0.40824829 0.40824829 0.81649658
vn 0.43643578 -0.21821789 0.87287156
vn -0.43643578 -0.21821789 0.87287156
vn -0.40824829 0.40824829 0.81649658
vn 0.0000000e+0 0.35112344 0.93632918
vn 0.0000000e+0 -0.60000000 0.80000000
vn 0.40824829 0.40824829 0.81649658
vn 0.40824829 -0.40824829 0.81649658
vn -0.40824829 -0.40824829 0.81649658
vn -0.40824829 0.40824829 0.81649658
vn 0.40824829 -0.40824829 0.81649658
vn -0.40824829 -0.40824829 0.81649658
vn -0.40824829 0.40824829 0.81649658
vn 0.40824829 0.40824829 0.81649658
vn 0.70710678 -0.70710678 0.0000000e+0
vn -0.70710678 -0.70710678 0.0000000e+0
vn -0.70710678 0.70710678 0.0000000e+0
vn 0.70710678 0.70710678 0.0000000e+0
vn 0.70710678 0.70710678 0.0000000e+0
vn 0.70710678 -0.70710678 0.0000000e+0
vn -0.70710678 -0.70710678 0.0000000e+0
vn -0.70710678 0.70710678 0.0000000e+0
g Cube1_Red
usemtl Red
s 1
f 26//26 34//34 25//25
f 29//29 34//34 30//30
f 29//29 39//39 34//34
f 30//30 34//34 26//26
f 34//34 39//39 35//35
f 38//38 39//39 29//29
g Cube1_White
usemtl White
s 1
f 25//25 27//27 26//26
f 25//25 34//34 27//27
f 26//26 27//27 28//28
f 26//26 32//32 30//30
f 27//27 33//33 28//28
f 27//27 34//34 33//33
f 28//28 32//32 26//26
f 28//28 33//33 32//32
f 29//29 32//32 31//31
f 30//30 32//32 29//29
f 31//31 37//37 29//29
f 32//32 33//33 31//31
f 33//33 40//40 31//31
f 34//34 36//36 33//33
f 35//35 41//41 36//36
f 36//36 34//34 35//35
f 36//36 40//40 33//33
f 36//36 43//43 40//40
f 37//37 31//31 40//40
f 37//37 47//47 38//38
f 38//38 29//29 37//37
f 38//38 47//47 39//39
f 39//39 41//41 35//35
f 39//39 45//45 40//40
f 40//40 43//43 39//39
f 40//40 45//45 37//37
f 41//41 39//39 44//44
f 41//41 54//54 42//42
f 41//41 56//56 53//53
f 42//42 36//36 41//41
f 42//42 54//54 43//43
f 43//43 36//36 42//42
f 43//43 56//56 44//44
f 44//44 39//39 43//43
f 44//44 56//56 41//41
f 45//45 39//39 48//48
f 45//45 50//50 46//46
f 45//45 52//52 49//49
f 46//46 37//37 45//45
f 46//46 50//50 47//47
f 47//47 37//37 46//46
f 47//47 52//52 48//48
f 48//48 39//39 47//47
f 48//48 52//52 45//45
f 50//50 45//45 49//49
f 51//51 47//47 50//50
f 52//52 47//47 51//51
f 54//54 41//41 53//53
f 55//55 43//43 54//54
f 56//56 43//43 55//55
